 http://img843.imageshack.us/img843/3353/thelasthorrorfilm1982.jpg

Country.......: USA
Genre.........: Horror
Date release..: 17.06.1982 [World]
Director......: David Winters
Writers.......: Judd Hamilton, Tom Klassen
Duration......: 87 min.
More..........: http://www.imdb.com/title/tt0087592
Trailer.......:

Pilot :
Vinny New York taxi driver haunted by a beautiful actress. He goes for it to Cannes, where she participates in the International Film Festival. At the same time, he starts a series of murders, they begin to die looking actress. (Madman)

Cats :
Caroline Munro 	... 	Jana Bates
Joe Spinell 	... 	Vinny Durand
Judd Hamilton 	... 	Alan Cunningham
Devin Goldenberg 	... 	Marty Bernstein
David Winters 	... 	Stanley Kline
Susanne Benton 	... 	Susan Archer (as Stanley Susanne Benton)
Filomena Spagnuolo 	... 	Vinny's Mother (as Mary Spinell)
Glenn Jacobson 	... 	Bret Bates
J Len Winters 	... 	Girl In Jaccuzi / Beach Girl Teaser
Sharon Hughes 	... 	Stripper
Sean Casey 	... 	Jonathan
Don Talley 	... 	Cowboy
John Kelly 	... 	Man In Theatre
Simone Overman 	... 	Woman #1 In Theatre
Malgosia Casey 	... 	Woman #2 In Theatre 

Data Technical :
!!! SAMPLE !!!
Audio.....: English
Subtitles.: None
Format                           : AVI
Format/Info                      : Audio Video Interleave
File size                        : 746 MiB
Duration                         : 1h 27mn
Overall bit rate                 : 1 197 Kbps
Writing application              : VirtualDubMod 1.5.4.1 (build 2178/release)
Writing library                  : VirtualDubMod build 2178/release
Video
ID                               : 0
Format                           : MPEG-4 Visual
Format profile                   : Advanced Simple@L5
Format settings, BVOP            : Yes
Format settings, QPel            : No
Format settings, GMC             : No warppoints
Format settings, Matrix          : Custom
Codec ID                         : XVID
Codec ID/Hint                    : XviD
Duration                         : 1h 27mn
Bit rate                         : 966 Kbps
Width                            : 640 pixels
Height                           : 480 pixels
Display aspect ratio             : 4:3
Frame rate                       : 25.000 fps
Color space                      : YUV
Chroma subsampling               : 4:2:0
Bit depth                        : 8 bits
Scan type                        : Progressive
Bits/(Pixel*Frame)               : 0.126
Stream size                      : 602 MiB (81%)
Writing library                  : XviD 1.2.0SMP
Audio
ID                               : 1
Format                           : AC-3
Format/Info                      : Audio Coding 3
Mode extension                   : CM (complete main)
Codec ID                         : 2000
Duration                         : 1h 27mn
Bit rate mode                    : Constant
Bit rate                         : 224 Kbps
Channel(s)                       : 2 channels
Channel positions                : Front: L R
Sampling rate                    : 48.0 KHz
Stream size                      : 140 MiB (19%)
Alignment                        : Aligned on interleaves
Interleave, duration             : 96 ms (2.40 video frames)
Interleave, preload duration     : 96 ms

Screen : 
http://img52.imageshack.us/img52/5341/thelasthorrorfilm1982s4.jpg 
http://img715.imageshack.us/img715/8715/thelasthorrorfilm1982s1.jpg 
http://img13.imageshack.us/img13/8633/thelasthorrorfilm1982s2.jpg 
http://img692.imageshack.us/img692/6522/thelasthorrorfilm1982s3.jpg